<svg xmlns:svg="http://www.w3.org/2001/svg" xmlns="http://www.w3.org/1/svg" xmlns:xlink="http://www.w3.org/1/xlink" id="svg80066" viewBox="0 0 1024 768" height="768px" width="1024px" version="6.9">
  <defs id=""/>
  <linearGradient spreadMethod="pad" y2="30%" x2="-10%" y1="120%" x1="30%" id="3d_gradient2-logo-e59c5945-6787-49a6-a60d-4799150312b0">
    <stop id="stop80047" stop-opacity="1" stop-color="#ffffff" offset="0%"/>
    <stop id="stop80049" stop-opacity="1" stop-color="#000000" offset="100%"/>
  </linearGradient>
  <linearGradient gradientTransform="rotate(-30)" spreadMethod="pad" y2="30%" x2="-10%" y1="120%" x1="30%" id="3d_gradient3-logo-e59c5945-6787-49a6-a60d-4799150312b0">
    <stop id="stop80052" stop-opacity="1" stop-color="#ffffff" offset="0%"/>
    <stop id="stop80054" stop-opacity="1" stop-color="#cccccc" offset="50%"/>
    <stop id="stop80056" stop-opacity="1" stop-color="#000000" offset="100%"/>
  </linearGradient>
  <g id="logo-group">
    <image xlink:href="" id="container" x="272" y="144" width="480" height="480" transform="translate(0 0)" style="display:none"/>
    <g id="logo-center" transform="translate(0 0)">
      <image xlink:href="" id="icon_container" x="0" y="0" style="display:none"/>
      <g id="slogan" style="font-style:normal;font-weight:700;font-size:32px;line-height:1;font-family:'Comfortaa Bold Alt2';font-variant-ligatures:none;text-align:center;text-anchor:middle" transform="translate(0 0)"/>
      <g id="title" style="font-style:normal;font-weight:normal;font-size:72px;line-height:1;font-family:antre;font-variant-ligatures:none;text-align:center;text-anchor:middle" transform="translate(0 0)">
        <path id="path80075" style="font-style:normal;font-weight:normal;font-size:72px;line-height:1;font-family:antre;font-variant-ligatures:none;text-align:center;text-anchor:middle" d="m 374.77306,-11.304 c 0.864,0 1.584,-0.216 2.16,-0.936 l 7.632,-9.072 -1.224,4.464 c -1.44,5.184 -0.936,9.792 1.512,13.032 2.16,2.808 5.544,4.392 9.648,4.392 3.312,0 6.48,-0.792 9.432,-3.384 1.368,2.664 3.528,3.384 5.328,3.384 3.24,0 5.04,-1.584 6.984,-3.888 l 13.464,-16.056 c 1.08,-1.296 0.936,-3.096 -0.36,-4.248 -1.296,-1.08 -3.24,-0.936 -4.392,0.36 l -13.752,16.344 c -0.36,0.432 -0.792,0.792 -1.296,0.792 -0.792,0 -0.864,-0.648 -0.576,-1.656 l 7.056,-25.416 c 0.432,-1.584 -0.504,-3.312 -2.16,-3.816 -1.656,-0.432 -3.384,0.576 -3.816,2.16 l -5.184,18.648 c -0.864,3.024 -2.16,5.544 -3.96,7.416 -1.944,2.088 -4.176,3.168 -6.768,3.168 -1.512,0 -3.528,-0.36 -4.68,-1.944 -1.224,-1.656 -1.44,-4.32 -0.504,-7.56 l 4.968,-18 c 0.432,-1.656 -0.432,-3.384 -2.088,-3.816 -1.224,-0.36 -2.52,0 -3.312,0.936 l -16.488,19.584 c -1.08,1.296 -0.936,3.24 0.36,4.392 0.576,0.504 1.296,0.72 2.016,0.72 z" stroke-width="0" stroke-linejoin="miter" stroke-miterlimit="2" fill="#b30001" stroke="#b30001" transform="translate(0 318.14049994) translate(311.02252472999993 51.137399810000005) scale(1.43) translate(-371.67605 37.108333)"/>
        <path id="path80077" style="font-style:normal;font-weight:normal;font-size:72px;line-height:1;font-family:antre;font-variant-ligatures:none;text-align:center;text-anchor:middle" d="m 447.08919,-31.464 c 1.728,0 3.096,-1.368 3.096,-3.096 0,-1.656 -1.368,-3.096 -3.096,-3.096 h -5.328 l 1.728,-6.264 c 0.504,-1.656 -0.504,-3.312 -2.16,-3.816 -1.656,-0.432 -3.312,0.576 -3.816,2.16 l -2.088,7.56 c -1.296,3.816 -2.736,5.616 -7.272,11.016 l -8.424,10.008 c -1.08,1.296 -1.008,3.24 0.288,4.392 0.576,0.504 1.296,0.72 2.016,0.72 0.864,0 1.728,-0.36 2.376,-1.08 l 6.12,-7.272 -2.664,9.792 c -0.792,2.808 -0.288,5.616 1.296,7.776 1.512,2.016 3.888,3.168 6.48,3.168 4.032,0 6.48,-2.664 8.208,-4.608 l 13.248,-15.768 c 1.08,-1.296 1.008,-3.24 -0.288,-4.392 -1.296,-1.08 -3.24,-0.864 -4.392,0.432 l -13.464,15.984 c -1.224,1.368 -2.232,2.16 -3.312,2.16 -0.648,0 -1.152,-0.288 -1.512,-0.72 -0.432,-0.576 -0.576,-1.44 -0.288,-2.376 l 6.192,-22.68 z" stroke-width="0" stroke-linejoin="miter" stroke-miterlimit="2" fill="#a41421" stroke="#a41421" transform="translate(0 318.14049994) translate(378.66298333 35.796359810000006) scale(1.43) translate(-418.97707 47.836333)"/>
        <path id="path80079" style="font-style:normal;font-weight:normal;font-size:72px;line-height:1;font-family:antre;font-variant-ligatures:none;text-align:center;text-anchor:middle" d="m 501.45256,-22.968 c -1.296,-1.152 -3.24,-1.008 -4.32,0.288 -11.376,13.536 -12.24,14.688 -13.176,15.552 -0.72,0.648 -1.728,1.584 -3.168,1.584 -1.512,0 -2.52,-1.368 -3.456,-2.952 -1.08,-1.8 -2.016,-3.384 -2.808,-4.896 1.872,-0.432 3.672,-1.08 5.256,-1.944 3.816,-2.088 6.408,-5.112 7.488,-8.784 0.864,-3.24 0.36,-6.48 -1.584,-9 -2.16,-2.88 -5.832,-4.536 -10.008,-4.536 -2.736,0 -5.256,0.648 -7.56,1.944 l 4.032,-14.544 c 0.432,-1.656 -0.504,-3.384 -2.16,-3.816 -1.656,-0.504 -3.384,0.504 -3.816,2.16 -1.224,4.536 -2.376,8.496 -3.384,12.168 -1.44,5.256 -6.048,10.656 -5.832,10.44 l -1.584,1.872 -6.192,7.344 c -1.08,1.296 -1.008,3.456 0.288,4.536 0.576,0.504 1.152,0.72 1.872,0.72 0.864,0 1.728,-0.36 2.376,-1.08 l 3.672,-4.392 c 0,0 -4.464,16.344 -4.464,16.416 -0.504,1.872 0.648,3.888 3.024,3.888 1.296,0 2.592,-0.864 2.952,-2.304 1.152,-4.104 2.304,-8.208 3.384,-12.384 1.152,-3.96 2.232,-8.064 4.608,-11.592 2.376,-3.456 5.256,-5.184 8.784,-5.184 2.232,0 4.104,0.792 5.04,2.088 0.72,0.936 0.936,2.232 0.576,3.6 -0.72,2.52 -2.808,4.104 -4.464,4.968 -2.088,1.08 -4.68,1.584 -7.2,1.8 -2.52,0.216 -3.6,2.952 -2.592,4.824 1.44,2.736 2.808,5.184 4.968,8.856 2.592,4.392 4.68,5.904 9.216,5.904 4.176,0 6.768,-2.88 8.136,-4.464 l 12.456,-14.832 c 1.08,-1.296 1.008,-3.168 -0.36,-4.248 z" stroke-width="0" stroke-linejoin="miter" stroke-miterlimit="2" fill="#942842" stroke="#942842" transform="translate(0 318.14049994) translate(420.77844243 26.693004120000005) scale(1.43) translate(-448.42844 54.202316)"/>
        <path id="path80081" style="font-style:normal;font-weight:normal;font-size:72px;line-height:1;font-family:antre;font-variant-ligatures:none;text-align:center;text-anchor:middle" d="m 533.32831,-33.048 c 0.504,-1.584 -0.504,-3.24 -2.16,-3.744 -1.728,-0.504 -3.24,0.288 -3.6,1.584 -0.144,0.504 -0.288,0.936 -0.36,1.152 -2.736,-2.376 -5.616,-3.6 -9.072,-3.6 -3.384,0 -6.624,0.792 -9.432,2.736 -2.448,1.656 -4.536,4.032 -8.496,8.712 l -8.352,9.936 c -1.08,1.296 -1.008,3.24 0.288,4.392 0.576,0.504 1.296,0.72 2.016,0.72 0.864,0 1.728,-0.36 2.376,-1.08 l 3.096,-3.744 c -1.08,4.608 -1.008,8.64 1.44,11.88 2.232,2.88 5.904,4.68 10.152,4.68 3.096,0 6.048,-0.936 8.64,-2.736 0.792,1.512 2.52,2.736 5.112,2.736 4.896,0 7.704,-3.24 11.448,-7.56 l 9.864,-11.736 c 1.152,-1.296 1.08,-3.312 -0.216,-4.392 -1.296,-1.152 -3.456,-0.864 -4.536,0.504 l -10.728,12.744 c -1.368,1.584 -3.168,4.032 -4.896,4.032 z m -21.816,27.432 c -1.584,0 -4.032,-0.432 -5.256,-2.088 -1.224,-1.656 -1.44,-4.824 -0.504,-7.92 0.576,-2.232 1.08,-3.888 1.728,-6.12 1.44,-4.968 4.752,-9.576 10.368,-9.72 2.376,0 4.392,0.864 5.544,2.376 1.008,1.368 1.296,3.168 0.864,5.328 l -2.376,8.568 c -2.376,8.208 -6.12,9.576 -10.368,9.576 z" stroke-width="0" stroke-linejoin="miter" stroke-miterlimit="2" fill="#853d62" stroke="#853d62" transform="translate(0 318.14049994) translate(481.80476493 50.35423600000001) scale(1.43) translate(-491.10419 37.656)"/>
        <path id="path80083" style="font-style:normal;font-weight:normal;font-size:72px;line-height:1;font-family:antre;font-variant-ligatures:none;text-align:center;text-anchor:middle" d="m 557.10519,0.576 c 4.248,0 6.84,-2.16 11.592,-7.848 l 9.792,-11.664 c 1.08,-1.296 1.08,-3.24 -0.216,-4.32 -1.296,-1.152 -3.24,-1.08 -4.464,0.36 l -12.24,14.544 c -2.088,2.448 -2.88,2.664 -3.6,2.664 -0.864,0 -1.8,-0.72 -1.8,-1.872 0,-0.792 0.216,-1.728 0.648,-2.736 2.376,-5.544 5.76,-12.456 8.64,-19.152 0.648,-1.512 0.504,-2.88 -0.792,-3.744 l -4.104,-2.52 0.936,-1.08 c 1.08,-1.296 1.08,-3.24 -0.216,-4.32 -1.296,-1.152 -3.24,-1.08 -4.464,0.36 l -17.712,20.952 c -1.152,1.296 -1.008,3.24 0.36,4.32 1.296,1.152 3.24,0.936 4.32,-0.36 l 12.888,-15.264 2.088,1.224 c -2.232,5.328 -5.04,11.16 -7.632,17.064 -0.72,1.656 -1.44,3.744 -1.44,5.904 0,2.016 0.648,3.816 1.872,5.184 1.368,1.44 3.384,2.304 5.544,2.304 z" stroke-width="0" stroke-linejoin="miter" stroke-miterlimit="2" fill="#755182" stroke="#755182" transform="translate(0 318.14049994) translate(549.3387457299999 44.2699292) scale(1.43) translate(-538.33075 41.91076)"/>
        <path id="path80085" style="font-style:normal;font-weight:normal;font-size:72px;line-height:1;font-family:antre;font-variant-ligatures:none;text-align:center;text-anchor:middle" d="m 583.33569,0.576 c 2.88,0 5.688,-0.504 9.072,-2.52 3.024,-1.944 6.264,-5.112 11.16,-10.656 l 7.2,-8.568 c 1.08,-1.296 1.008,-3.168 -0.288,-4.32 -1.296,-1.08 -3.312,-0.936 -4.392,0.36 l -7.056,8.352 -3.168,3.6 c -0.288,-2.376 -1.296,-4.968 -4.176,-9.864 -1.008,-1.8 -3.024,-4.68 -3.312,-6.192 -0.072,-0.432 -0.216,-1.224 1.08,-2.736 1.152,-1.296 0.936,-3.24 -0.36,-4.392 -1.152,-1.008 -3.24,-0.936 -4.248,0.288 l -16.344,19.44 c -1.08,1.296 -1.008,3.312 0.36,4.392 1.296,1.152 3.168,0.936 4.32,-0.432 l 10.296,-12.24 c 0.504,1.08 1.08,2.16 2.88,5.04 3.096,5.256 3.384,6.696 3.384,8.352 0,1.44 -0.648,2.88 -1.728,3.96 -0.792,0.792 -2.16,1.944 -4.68,1.944 -2.304,0 -4.248,-1.08 -4.824,-1.584 -1.368,-1.08 -3.312,-0.792 -4.32,0.576 -1.08,1.368 -0.792,3.312 0.504,4.32 1.368,1.08 5.04,2.88 8.64,2.88 z" stroke-width="0" stroke-linejoin="miter" stroke-miterlimit="2" fill="#6565a3" stroke="#6565a3" transform="translate(0 318.14049994) translate(591.42047113 51.208735360000006) scale(1.43) translate(-567.75853 37.058448)"/>
        <path id="path80087" style="font-style:normal;font-weight:normal;font-size:72px;line-height:1;font-family:antre;font-variant-ligatures:none;text-align:center;text-anchor:middle" d="m 651.72331,-22.176 c -1.296,-1.08 -3.24,-0.936 -4.392,0.36 l -11.52,13.68 c -1.584,1.728 -2.304,2.304 -3.384,2.304 0.144,-0.72 0.504,-1.872 0.72,-2.736 l 3.096,-11.16 c 2.016,-7.128 0.432,-11.376 -1.296,-13.68 -2.232,-3.024 -5.904,-4.248 -9.432,-4.248 -2.376,0 -4.608,0.504 -6.624,1.512 l 3.888,-14.112 c 0.504,-1.656 -0.504,-3.312 -2.16,-3.816 -1.584,-0.432 -3.312,0.504 -3.816,2.16 -1.08,4.104 -2.232,8.208 -3.384,12.384 -0.648,2.304 -0.72,3.024 -1.296,4.68 -1.44,4.032 -6.984,10.944 -10.08,14.616 l -3.168,3.744 c 0,0 -0.648,0.648 -0.648,1.8 0,1.8 1.44,3.24 3.024,3.24 1.368,0 2.376,-1.152 2.376,-1.152 l 3.456,-4.104 -3.6,12.744 c -0.432,1.656 0.504,3.384 2.16,3.816 0.288,0.144 0.576,0.144 0.864,0.144 1.368,0 2.592,-0.864 2.952,-2.232 l 4.68,-16.848 c 1.728,-6.336 4.968,-12.384 11.376,-12.384 1.44,0 3.384,0.36 4.464,1.8 1.224,1.656 1.368,4.536 0.288,8.208 0,0 -2.664,9.576 -3.024,11.016 -0.504,1.944 -1.08,3.6 -1.08,5.76 0,2.16 1.512,5.184 6.264,5.184 4.032,0 6.84,-3.168 8.28,-4.896 l 11.304,-13.464 c 1.08,-1.296 1.008,-3.168 -0.288,-4.32 z" stroke-width="0" stroke-linejoin="miter" stroke-miterlimit="2" fill="#5679c3" stroke="#5679c3" transform="translate(0 318.14049994) translate(634.99082653 26.729175970000007) scale(1.43) translate(-598.22731 54.177021)"/>
      </g>
      <image xlink:href="" id="icon" x="0" y="0" style="display:none"/>
    </g>
  </g>
</svg>
